<svg xmlns="http://www.w3.org/2000/svg" viewBox="0 0 1280 720" width="1280" height="720"><defs><radialGradient id="glow" cx="50%" cy="50%" r="50%"><stop offset="0%" stop-color="#ffffff" stop-opacity="0.14"/><stop offset="55%" stop-color="#ffffff" stop-opacity="0.045"/><stop offset="100%" stop-color="#ffffff" stop-opacity="0"/></radialGradient></defs><rect width="1280" height="720" fill="#050505"/><g stroke="#ffffff" stroke-opacity="0.035" stroke-width="1"><line x1="64" y1="0" x2="64" y2="720"/><line x1="128" y1="0" x2="128" y2="720"/><line x1="192" y1="0" x2="192" y2="720"/><line x1="256" y1="0" x2="256" y2="720"/><line x1="320" y1="0" x2="320" y2="720"/><line x1="384" y1="0" x2="384" y2="720"/><line x1="448" y1="0" x2="448" y2="720"/><line x1="512" y1="0" x2="512" y2="720"/><line x1="576" y1="0" x2="576" y2="720"/><line x1="640" y1="0" x2="640" y2="720"/><line x1="704" y1="0" x2="704" y2="720"/><line x1="768" y1="0" x2="768" y2="720"/><line x1="832" y1="0" x2="832" y2="720"/><line x1="896" y1="0" x2="896" y2="720"/><line x1="960" y1="0" x2="960" y2="720"/><line x1="1024" y1="0" x2="1024" y2="720"/><line x1="1088" y1="0" x2="1088" y2="720"/><line x1="1152" y1="0" x2="1152" y2="720"/><line x1="1216" y1="0" x2="1216" y2="720"/><line x1="0" y1="64" x2="1280" y2="64"/><line x1="0" y1="128" x2="1280" y2="128"/><line x1="0" y1="192" x2="1280" y2="192"/><line x1="0" y1="256" x2="1280" y2="256"/><line x1="0" y1="320" x2="1280" y2="320"/><line x1="0" y1="384" x2="1280" y2="384"/><line x1="0" y1="448" x2="1280" y2="448"/><line x1="0" y1="512" x2="1280" y2="512"/><line x1="0" y1="576" x2="1280" y2="576"/><line x1="0" y1="640" x2="1280" y2="640"/><line x1="0" y1="704" x2="1280" y2="704"/></g><circle cx="640" cy="360" r="310" fill="url(#glow)"/><g fill="#ffffff"><circle cx="882.9" cy="556.4" r="1.03" opacity="0.43"/><circle cx="109.0" cy="426.4" r="1.78" opacity="0.35"/><circle cx="1159.2" cy="165.2" r="1.87" opacity="0.49"/><circle cx="845.5" cy="10.0" r="1.40" opacity="0.27"/><circle cx="1147.6" cy="207.4" r="1.83" opacity="0.48"/><circle cx="324.6" cy="13.7" r="1.89" opacity="0.22"/><circle cx="349.0" cy="88.7" r="1.41" opacity="0.62"/><circle cx="314.2" cy="58.3" r="1.97" opacity="0.28"/><circle cx="521.7" cy="709.7" r="1.11" opacity="0.31"/><circle cx="278.1" cy="625.8" r="1.78" opacity="0.56"/><circle cx="654.8" cy="579.6" r="1.67" opacity="0.19"/><circle cx="814.1" cy="415.9" r="1.17" opacity="0.51"/><circle cx="780.1" cy="5.9" r="2.10" opacity="0.29"/><circle cx="448.1" cy="629.7" r="1.07" opacity="0.21"/><circle cx="1067.1" cy="200.8" r="2.20" opacity="0.13"/><circle cx="449.4" cy="546.1" r="1.17" opacity="0.45"/><circle cx="98.3" cy="57.6" r="1.80" opacity="0.38"/><circle cx="324.4" cy="669.6" r="0.77" opacity="0.49"/><circle cx="1221.0" cy="205.4" r="1.50" opacity="0.55"/><circle cx="1083.9" cy="416.8" r="2.13" opacity="0.47"/><circle cx="691.4" cy="79.1" r="1.14" opacity="0.38"/><circle cx="198.4" cy="181.5" r="1.85" opacity="0.19"/><circle cx="102.5" cy="235.2" r="1.91" opacity="0.44"/><circle cx="528.0" cy="70.3" r="1.14" opacity="0.60"/><circle cx="417.9" cy="506.0" r="1.82" opacity="0.17"/><circle cx="1002.9" cy="670.8" r="1.61" opacity="0.18"/><circle cx="463.1" cy="290.1" r="0.78" opacity="0.33"/><circle cx="1174.8" cy="224.1" r="1.85" opacity="0.15"/><circle cx="1045.0" cy="72.5" r="1.47" opacity="0.53"/><circle cx="268.4" cy="429.5" r="0.85" opacity="0.30"/><circle cx="849.2" cy="183.0" r="1.72" opacity="0.24"/><circle cx="324.2" cy="709.0" r="1.66" opacity="0.35"/><circle cx="950.1" cy="27.8" r="1.63" opacity="0.45"/><circle cx="24.7" cy="104.2" r="1.20" opacity="0.29"/><circle cx="822.2" cy="683.2" r="1.59" opacity="0.55"/><circle cx="989.9" cy="204.1" r="0.80" opacity="0.21"/><circle cx="53.2" cy="163.5" r="2.04" opacity="0.35"/><circle cx="54.0" cy="559.6" r="1.58" opacity="0.26"/><circle cx="1144.7" cy="557.7" r="2.16" opacity="0.21"/><circle cx="348.7" cy="579.6" r="1.11" opacity="0.27"/><circle cx="980.2" cy="2.8" r="1.69" opacity="0.39"/><circle cx="346.4" cy="175.1" r="1.70" opacity="0.52"/><circle cx="722.3" cy="435.8" r="1.71" opacity="0.33"/><circle cx="728.2" cy="143.5" r="0.86" opacity="0.31"/><circle cx="635.0" cy="45.3" r="1.61" opacity="0.35"/><circle cx="595.5" cy="276.5" r="1.45" opacity="0.30"/><circle cx="323.0" cy="313.2" r="1.49" opacity="0.45"/><circle cx="459.3" cy="176.6" r="1.89" opacity="0.15"/><circle cx="469.2" cy="496.5" r="0.89" opacity="0.19"/><circle cx="1270.1" cy="58.1" r="1.48" opacity="0.32"/><circle cx="170.6" cy="150.2" r="2.17" opacity="0.32"/><circle cx="39.4" cy="441.5" r="1.73" opacity="0.50"/><circle cx="663.4" cy="163.0" r="0.98" opacity="0.55"/><circle cx="1227.7" cy="365.7" r="0.86" opacity="0.46"/><circle cx="633.0" cy="223.0" r="0.86" opacity="0.36"/><circle cx="1261.8" cy="373.5" r="0.97" opacity="0.24"/><circle cx="1222.4" cy="146.3" r="1.88" opacity="0.48"/><circle cx="760.2" cy="3.8" r="1.35" opacity="0.58"/><circle cx="1.8" cy="551.2" r="1.44" opacity="0.40"/><circle cx="566.6" cy="229.4" r="1.69" opacity="0.55"/></g><g fill="#ffffff"><circle cx="640.0" cy="110.0" r="4.4" opacity="0.42"/><circle cx="655.7" cy="110.5" r="4.4" opacity="0.42"/><circle cx="671.3" cy="112.0" r="4.4" opacity="0.42"/><circle cx="686.8" cy="114.4" r="4.4" opacity="0.42"/><circle cx="702.2" cy="117.9" r="4.4" opacity="0.42"/><circle cx="717.3" cy="122.2" r="4.4" opacity="0.42"/><circle cx="732.0" cy="127.6" r="8" opacity="0.95"/><circle cx="746.4" cy="133.8" r="4.4" opacity="0.42"/><circle cx="760.4" cy="140.9" r="4.4" opacity="0.42"/><circle cx="774.0" cy="148.9" r="4.4" opacity="0.42"/><circle cx="786.9" cy="157.7" r="4.4" opacity="0.42"/><circle cx="799.4" cy="167.4" r="4.4" opacity="0.42"/><circle cx="811.1" cy="177.8" r="4.4" opacity="0.42"/><circle cx="822.2" cy="188.9" r="4.4" opacity="0.42"/><circle cx="832.6" cy="200.6" r="4.4" opacity="0.42"/><circle cx="842.3" cy="213.1" r="4.4" opacity="0.42"/><circle cx="851.1" cy="226.0" r="8" opacity="0.95"/><circle cx="859.1" cy="239.6" r="4.4" opacity="0.42"/><circle cx="866.2" cy="253.6" r="4.4" opacity="0.42"/><circle cx="872.4" cy="268.0" r="4.4" opacity="0.42"/><circle cx="877.8" cy="282.7" r="4.4" opacity="0.42"/><circle cx="882.1" cy="297.8" r="4.4" opacity="0.42"/><circle cx="885.6" cy="313.2" r="4.4" opacity="0.42"/><circle cx="888.0" cy="328.7" r="4.4" opacity="0.42"/><circle cx="889.5" cy="344.3" r="4.4" opacity="0.42"/><circle cx="890.0" cy="360.0" r="4.4" opacity="0.42"/><circle cx="889.5" cy="375.7" r="8" opacity="0.95"/><circle cx="888.0" cy="391.3" r="4.4" opacity="0.42"/><circle cx="885.6" cy="406.8" r="4.4" opacity="0.42"/><circle cx="882.1" cy="422.2" r="4.4" opacity="0.42"/><circle cx="877.8" cy="437.3" r="4.4" opacity="0.42"/><circle cx="872.4" cy="452.0" r="4.4" opacity="0.42"/><circle cx="866.2" cy="466.4" r="4.4" opacity="0.42"/><circle cx="859.1" cy="480.4" r="4.4" opacity="0.42"/><circle cx="851.1" cy="494.0" r="4.4" opacity="0.42"/><circle cx="842.3" cy="506.9" r="4.4" opacity="0.42"/><circle cx="832.6" cy="519.4" r="8" opacity="0.95"/><circle cx="822.2" cy="531.1" r="4.4" opacity="0.42"/><circle cx="811.1" cy="542.2" r="4.4" opacity="0.42"/><circle cx="799.4" cy="552.6" r="4.4" opacity="0.42"/><circle cx="786.9" cy="562.3" r="4.4" opacity="0.42"/><circle cx="774.0" cy="571.1" r="4.4" opacity="0.42"/><circle cx="760.4" cy="579.1" r="4.4" opacity="0.42"/><circle cx="746.4" cy="586.2" r="4.4" opacity="0.42"/><circle cx="732.0" cy="592.4" r="4.4" opacity="0.42"/><circle cx="717.3" cy="597.8" r="4.4" opacity="0.42"/><circle cx="702.2" cy="602.1" r="8" opacity="0.95"/><circle cx="686.8" cy="605.6" r="4.4" opacity="0.42"/><circle cx="671.3" cy="608.0" r="4.4" opacity="0.42"/><circle cx="655.7" cy="609.5" r="4.4" opacity="0.42"/><circle cx="640.0" cy="610.0" r="4.4" opacity="0.42"/><circle cx="624.3" cy="609.5" r="4.4" opacity="0.42"/><circle cx="608.7" cy="608.0" r="4.4" opacity="0.42"/><circle cx="593.2" cy="605.6" r="4.4" opacity="0.42"/><circle cx="577.8" cy="602.1" r="4.4" opacity="0.42"/><circle cx="562.7" cy="597.8" r="4.4" opacity="0.42"/><circle cx="548.0" cy="592.4" r="8" opacity="0.95"/><circle cx="533.6" cy="586.2" r="4.4" opacity="0.42"/><circle cx="519.6" cy="579.1" r="4.4" opacity="0.42"/><circle cx="506.0" cy="571.1" r="4.4" opacity="0.42"/><circle cx="493.1" cy="562.3" r="4.4" opacity="0.42"/><circle cx="480.6" cy="552.6" r="4.4" opacity="0.42"/><circle cx="468.9" cy="542.2" r="4.4" opacity="0.42"/><circle cx="457.8" cy="531.1" r="4.4" opacity="0.42"/><circle cx="447.4" cy="519.4" r="4.4" opacity="0.42"/><circle cx="437.7" cy="506.9" r="4.4" opacity="0.42"/><circle cx="428.9" cy="494.0" r="8" opacity="0.95"/><circle cx="420.9" cy="480.4" r="4.4" opacity="0.42"/><circle cx="413.8" cy="466.4" r="4.4" opacity="0.42"/><circle cx="407.6" cy="452.0" r="4.4" opacity="0.42"/><circle cx="402.2" cy="437.3" r="4.4" opacity="0.42"/><circle cx="397.9" cy="422.2" r="4.4" opacity="0.42"/><circle cx="394.4" cy="406.8" r="4.4" opacity="0.42"/><circle cx="392.0" cy="391.3" r="4.4" opacity="0.42"/><circle cx="390.5" cy="375.7" r="4.4" opacity="0.42"/><circle cx="390.0" cy="360.0" r="4.4" opacity="0.42"/><circle cx="390.5" cy="344.3" r="8" opacity="0.95"/><circle cx="392.0" cy="328.7" r="4.4" opacity="0.42"/><circle cx="394.4" cy="313.2" r="4.4" opacity="0.42"/><circle cx="397.9" cy="297.8" r="4.4" opacity="0.42"/><circle cx="402.2" cy="282.7" r="4.4" opacity="0.42"/><circle cx="407.6" cy="268.0" r="4.4" opacity="0.42"/><circle cx="413.8" cy="253.6" r="4.4" opacity="0.42"/><circle cx="420.9" cy="239.6" r="4.4" opacity="0.42"/><circle cx="428.9" cy="226.0" r="4.4" opacity="0.42"/><circle cx="437.7" cy="213.1" r="4.4" opacity="0.42"/><circle cx="447.4" cy="200.6" r="8" opacity="0.95"/><circle cx="457.8" cy="188.9" r="4.4" opacity="0.42"/><circle cx="468.9" cy="177.8" r="4.4" opacity="0.42"/><circle cx="480.6" cy="167.4" r="4.4" opacity="0.42"/><circle cx="493.1" cy="157.7" r="4.4" opacity="0.42"/><circle cx="506.0" cy="148.9" r="4.4" opacity="0.42"/><circle cx="519.6" cy="140.9" r="4.4" opacity="0.42"/><circle cx="533.6" cy="133.8" r="4.4" opacity="0.42"/><circle cx="548.0" cy="127.6" r="4.4" opacity="0.42"/><circle cx="562.7" cy="122.2" r="4.4" opacity="0.42"/><circle cx="577.8" cy="117.9" r="8" opacity="0.95"/><circle cx="593.2" cy="114.4" r="4.4" opacity="0.42"/><circle cx="608.7" cy="112.0" r="4.4" opacity="0.42"/><circle cx="624.3" cy="110.5" r="4.4" opacity="0.42"/></g><circle cx="732.0" cy="127.6" r="17" fill="none" stroke="#ffffff" stroke-opacity="0.45"/><line x1="640" y1="360" x2="732.0" y2="127.6" stroke="#ffffff" stroke-opacity="0.16"/><circle cx="851.1" cy="226.0" r="17" fill="none" stroke="#ffffff" stroke-opacity="0.45"/><line x1="640" y1="360" x2="851.1" y2="226.0" stroke="#ffffff" stroke-opacity="0.16"/><circle cx="889.5" cy="375.7" r="17" fill="none" stroke="#ffffff" stroke-opacity="0.45"/><line x1="640" y1="360" x2="889.5" y2="375.7" stroke="#ffffff" stroke-opacity="0.16"/><circle cx="832.6" cy="519.4" r="17" fill="none" stroke="#ffffff" stroke-opacity="0.45"/><line x1="640" y1="360" x2="832.6" y2="519.4" stroke="#ffffff" stroke-opacity="0.16"/><circle cx="702.2" cy="602.1" r="17" fill="none" stroke="#ffffff" stroke-opacity="0.45"/><line x1="640" y1="360" x2="702.2" y2="602.1" stroke="#ffffff" stroke-opacity="0.16"/><circle cx="548.0" cy="592.4" r="17" fill="none" stroke="#ffffff" stroke-opacity="0.45"/><line x1="640" y1="360" x2="548.0" y2="592.4" stroke="#ffffff" stroke-opacity="0.16"/><circle cx="428.9" cy="494.0" r="17" fill="none" stroke="#ffffff" stroke-opacity="0.45"/><line x1="640" y1="360" x2="428.9" y2="494.0" stroke="#ffffff" stroke-opacity="0.16"/><circle cx="390.5" cy="344.3" r="17" fill="none" stroke="#ffffff" stroke-opacity="0.45"/><line x1="640" y1="360" x2="390.5" y2="344.3" stroke="#ffffff" stroke-opacity="0.16"/><circle cx="447.4" cy="200.6" r="17" fill="none" stroke="#ffffff" stroke-opacity="0.45"/><line x1="640" y1="360" x2="447.4" y2="200.6" stroke="#ffffff" stroke-opacity="0.16"/><circle cx="577.8" cy="117.9" r="17" fill="none" stroke="#ffffff" stroke-opacity="0.45"/><line x1="640" y1="360" x2="577.8" y2="117.9" stroke="#ffffff" stroke-opacity="0.16"/><g fill="#ffffff"><circle cx="640" cy="360" r="15" fill="#ffffff" opacity="0.9"/><circle cx="640" cy="360" r="11" fill="#ffffff" opacity="0.25"/></g><ellipse cx="640" cy="360" rx="330" ry="120" fill="none" stroke="#ffffff" stroke-opacity="0.14" transform="rotate(-13 640 360)"/><g fill="none" stroke="#ffffff" stroke-opacity="0.4" stroke-width="1.5"><path d="M 50 28 H 28 V 50"/><path d="M 1230 28 H 1252 V 50"/><path d="M 28 670 V 692 H 50"/><path d="M 1252 670 V 692 H 1230"/></g></svg>