<svg xmlns="http://www.w3.org/2000/svg" viewBox="0 0 1280 720" width="1280" height="720">
  <radialGradient id="glow" cx="50%" cy="50%" r="50%">
    <stop offset="0%" stop-color="#ffffff" stop-opacity="0.16"/>
    <stop offset="55%" stop-color="#ffffff" stop-opacity="0.05"/>
    <stop offset="100%" stop-color="#ffffff" stop-opacity="0"/>
  </radialGradient>
  <linearGradient id="edge" x1="0" y1="0" x2="0" y2="1">
    <stop offset="0%" stop-color="#ffffff" stop-opacity="0.10"/>
    <stop offset="100%" stop-color="#ffffff" stop-opacity="0"/>
  </linearGradient><rect width="1280" height="720" fill="#050505"/><g stroke="#ffffff" stroke-opacity="0.035" stroke-width="1"><line x1="64" y1="0" x2="64" y2="720"/><line x1="128" y1="0" x2="128" y2="720"/><line x1="192" y1="0" x2="192" y2="720"/><line x1="256" y1="0" x2="256" y2="720"/><line x1="320" y1="0" x2="320" y2="720"/><line x1="384" y1="0" x2="384" y2="720"/><line x1="448" y1="0" x2="448" y2="720"/><line x1="512" y1="0" x2="512" y2="720"/><line x1="576" y1="0" x2="576" y2="720"/><line x1="640" y1="0" x2="640" y2="720"/><line x1="704" y1="0" x2="704" y2="720"/><line x1="768" y1="0" x2="768" y2="720"/><line x1="832" y1="0" x2="832" y2="720"/><line x1="896" y1="0" x2="896" y2="720"/><line x1="960" y1="0" x2="960" y2="720"/><line x1="1024" y1="0" x2="1024" y2="720"/><line x1="1088" y1="0" x2="1088" y2="720"/><line x1="1152" y1="0" x2="1152" y2="720"/><line x1="1216" y1="0" x2="1216" y2="720"/><line x1="0" y1="64" x2="1280" y2="64"/><line x1="0" y1="128" x2="1280" y2="128"/><line x1="0" y1="192" x2="1280" y2="192"/><line x1="0" y1="256" x2="1280" y2="256"/><line x1="0" y1="320" x2="1280" y2="320"/><line x1="0" y1="384" x2="1280" y2="384"/><line x1="0" y1="448" x2="1280" y2="448"/><line x1="0" y1="512" x2="1280" y2="512"/><line x1="0" y1="576" x2="1280" y2="576"/><line x1="0" y1="640" x2="1280" y2="640"/><line x1="0" y1="704" x2="1280" y2="704"/></g><circle cx="640" cy="360" r="240" fill="url(#glow)"/><g fill='#ffffff'><circle cx="84" cy="84" r="2" opacity="0.3"/><circle cx="132" cy="84" r="2" opacity="0.3"/><circle cx="180" cy="84" r="2" opacity="0.3"/><circle cx="228" cy="84" r="2" opacity="0.3"/><circle cx="276" cy="84" r="2" opacity="0.3"/><circle cx="324" cy="84" r="2" opacity="0.3"/><circle cx="372" cy="84" r="2" opacity="0.3"/><circle cx="420" cy="84" r="2" opacity="0.3"/><circle cx="468" cy="84" r="2" opacity="0.3"/><circle cx="516" cy="84" r="2" opacity="0.3"/><circle cx="564" cy="84" r="2" opacity="0.3"/><circle cx="612" cy="84" r="2" opacity="0.3"/><circle cx="660" cy="84" r="2" opacity="0.3"/><circle cx="708" cy="84" r="2" opacity="0.3"/><circle cx="756" cy="84" r="2" opacity="0.3"/><circle cx="804" cy="84" r="2" opacity="0.3"/><circle cx="852" cy="84" r="2" opacity="0.3"/><circle cx="900" cy="84" r="2" opacity="0.3"/><circle cx="948" cy="84" r="2" opacity="0.3"/><circle cx="996" cy="84" r="2" opacity="0.3"/><circle cx="1044" cy="84" r="2" opacity="0.3"/><circle cx="1092" cy="84" r="2" opacity="0.3"/><circle cx="1140" cy="84" r="2" opacity="0.3"/><circle cx="1188" cy="84" r="2" opacity="0.3"/><circle cx="84" cy="132" r="2" opacity="0.3"/><circle cx="132" cy="132" r="2" opacity="0.3"/><circle cx="180" cy="132" r="2" opacity="0.3"/><circle cx="228" cy="132" r="2" opacity="0.3"/><circle cx="276" cy="132" r="2" opacity="0.3"/><circle cx="324" cy="132" r="2" opacity="0.3"/><circle cx="372" cy="132" r="2" opacity="0.3"/><circle cx="420" cy="132" r="2" opacity="0.3"/><circle cx="468" cy="132" r="2" opacity="0.3"/><circle cx="804" cy="132" r="2" opacity="0.3"/><circle cx="852" cy="132" r="2" opacity="0.3"/><circle cx="900" cy="132" r="2" opacity="0.3"/><circle cx="948" cy="132" r="2" opacity="0.3"/><circle cx="996" cy="132" r="2" opacity="0.3"/><circle cx="1044" cy="132" r="2" opacity="0.3"/><circle cx="1092" cy="132" r="2" opacity="0.3"/><circle cx="1140" cy="132" r="2" opacity="0.3"/><circle cx="1188" cy="132" r="2" opacity="0.3"/><circle cx="84" cy="180" r="2" opacity="0.3"/><circle cx="132" cy="180" r="2" opacity="0.3"/><circle cx="180" cy="180" r="2" opacity="0.3"/><circle cx="228" cy="180" r="2" opacity="0.3"/><circle cx="276" cy="180" r="2" opacity="0.3"/><circle cx="324" cy="180" r="2" opacity="0.3"/><circle cx="372" cy="180" r="2" opacity="0.3"/><circle cx="420" cy="180" r="2" opacity="0.3"/><circle cx="852" cy="180" r="2" opacity="0.3"/><circle cx="900" cy="180" r="2" opacity="0.3"/><circle cx="948" cy="180" r="2" opacity="0.3"/><circle cx="996" cy="180" r="2" opacity="0.3"/><circle cx="1044" cy="180" r="2" opacity="0.3"/><circle cx="1092" cy="180" r="2" opacity="0.3"/><circle cx="1140" cy="180" r="2" opacity="0.3"/><circle cx="1188" cy="180" r="2" opacity="0.3"/><circle cx="84" cy="228" r="2" opacity="0.3"/><circle cx="132" cy="228" r="2" opacity="0.3"/><circle cx="180" cy="228" r="2" opacity="0.3"/><circle cx="228" cy="228" r="2" opacity="0.3"/><circle cx="276" cy="228" r="2" opacity="0.3"/><circle cx="324" cy="228" r="2" opacity="0.3"/><circle cx="372" cy="228" r="2" opacity="0.3"/><circle cx="900" cy="228" r="2" opacity="0.3"/><circle cx="948" cy="228" r="2" opacity="0.3"/><circle cx="996" cy="228" r="2" opacity="0.3"/><circle cx="1044" cy="228" r="2" opacity="0.3"/><circle cx="1092" cy="228" r="2" opacity="0.3"/><circle cx="1140" cy="228" r="2" opacity="0.3"/><circle cx="1188" cy="228" r="2" opacity="0.3"/><circle cx="84" cy="276" r="2" opacity="0.3"/><circle cx="132" cy="276" r="2" opacity="0.3"/><circle cx="180" cy="276" r="2" opacity="0.3"/><circle cx="228" cy="276" r="2" opacity="0.3"/><circle cx="276" cy="276" r="2" opacity="0.3"/><circle cx="324" cy="276" r="2" opacity="0.3"/><circle cx="372" cy="276" r="2" opacity="0.3"/><circle cx="900" cy="276" r="2" opacity="0.3"/><circle cx="948" cy="276" r="2" opacity="0.3"/><circle cx="996" cy="276" r="2" opacity="0.3"/><circle cx="1044" cy="276" r="2" opacity="0.3"/><circle cx="1092" cy="276" r="2" opacity="0.3"/><circle cx="1140" cy="276" r="2" opacity="0.3"/><circle cx="1188" cy="276" r="2" opacity="0.3"/><circle cx="84" cy="324" r="2" opacity="0.3"/><circle cx="132" cy="324" r="2" opacity="0.3"/><circle cx="180" cy="324" r="2" opacity="0.3"/><circle cx="228" cy="324" r="2" opacity="0.3"/><circle cx="276" cy="324" r="2" opacity="0.3"/><circle cx="324" cy="324" r="2" opacity="0.3"/><circle cx="372" cy="324" r="2" opacity="0.3"/><circle cx="900" cy="324" r="2" opacity="0.3"/><circle cx="948" cy="324" r="2" opacity="0.3"/><circle cx="996" cy="324" r="2" opacity="0.3"/><circle cx="1044" cy="324" r="2" opacity="0.3"/><circle cx="1092" cy="324" r="2" opacity="0.3"/><circle cx="1140" cy="324" r="2" opacity="0.3"/><circle cx="1188" cy="324" r="2" opacity="0.3"/><circle cx="84" cy="372" r="2" opacity="0.3"/><circle cx="132" cy="372" r="2" opacity="0.3"/><circle cx="180" cy="372" r="2" opacity="0.3"/><circle cx="228" cy="372" r="2" opacity="0.3"/><circle cx="276" cy="372" r="2" opacity="0.3"/><circle cx="324" cy="372" r="2" opacity="0.3"/><circle cx="372" cy="372" r="2" opacity="0.3"/><circle cx="900" cy="372" r="2" opacity="0.3"/><circle cx="948" cy="372" r="2" opacity="0.3"/><circle cx="996" cy="372" r="2" opacity="0.3"/><circle cx="1044" cy="372" r="2" opacity="0.3"/><circle cx="1092" cy="372" r="2" opacity="0.3"/><circle cx="1140" cy="372" r="2" opacity="0.3"/><circle cx="1188" cy="372" r="2" opacity="0.3"/><circle cx="84" cy="420" r="2" opacity="0.3"/><circle cx="132" cy="420" r="2" opacity="0.3"/><circle cx="180" cy="420" r="2" opacity="0.3"/><circle cx="228" cy="420" r="2" opacity="0.3"/><circle cx="276" cy="420" r="2" opacity="0.3"/><circle cx="324" cy="420" r="2" opacity="0.3"/><circle cx="372" cy="420" r="2" opacity="0.3"/><circle cx="900" cy="420" r="2" opacity="0.3"/><circle cx="948" cy="420" r="2" opacity="0.3"/><circle cx="996" cy="420" r="2" opacity="0.3"/><circle cx="1044" cy="420" r="2" opacity="0.3"/><circle cx="1092" cy="420" r="2" opacity="0.3"/><circle cx="1140" cy="420" r="2" opacity="0.3"/><circle cx="1188" cy="420" r="2" opacity="0.3"/><circle cx="84" cy="468" r="2" opacity="0.3"/><circle cx="132" cy="468" r="2" opacity="0.3"/><circle cx="180" cy="468" r="2" opacity="0.3"/><circle cx="228" cy="468" r="2" opacity="0.3"/><circle cx="276" cy="468" r="2" opacity="0.3"/><circle cx="324" cy="468" r="2" opacity="0.3"/><circle cx="372" cy="468" r="2" opacity="0.3"/><circle cx="900" cy="468" r="2" opacity="0.3"/><circle cx="948" cy="468" r="2" opacity="0.3"/><circle cx="996" cy="468" r="2" opacity="0.3"/><circle cx="1044" cy="468" r="2" opacity="0.3"/><circle cx="1092" cy="468" r="2" opacity="0.3"/><circle cx="1140" cy="468" r="2" opacity="0.3"/><circle cx="1188" cy="468" r="2" opacity="0.3"/><circle cx="84" cy="516" r="2" opacity="0.3"/><circle cx="132" cy="516" r="2" opacity="0.3"/><circle cx="180" cy="516" r="2" opacity="0.3"/><circle cx="228" cy="516" r="2" opacity="0.3"/><circle cx="276" cy="516" r="2" opacity="0.3"/><circle cx="324" cy="516" r="2" opacity="0.3"/><circle cx="372" cy="516" r="2" opacity="0.3"/><circle cx="420" cy="516" r="2" opacity="0.3"/><circle cx="852" cy="516" r="2" opacity="0.3"/><circle cx="900" cy="516" r="2" opacity="0.3"/><circle cx="948" cy="516" r="2" opacity="0.3"/><circle cx="996" cy="516" r="2" opacity="0.3"/><circle cx="1044" cy="516" r="2" opacity="0.3"/><circle cx="1092" cy="516" r="2" opacity="0.3"/><circle cx="1140" cy="516" r="2" opacity="0.3"/><circle cx="1188" cy="516" r="2" opacity="0.3"/><circle cx="84" cy="564" r="2" opacity="0.3"/><circle cx="132" cy="564" r="2" opacity="0.3"/><circle cx="180" cy="564" r="2" opacity="0.3"/><circle cx="228" cy="564" r="2" opacity="0.3"/><circle cx="276" cy="564" r="2" opacity="0.3"/><circle cx="324" cy="564" r="2" opacity="0.3"/><circle cx="372" cy="564" r="2" opacity="0.3"/><circle cx="420" cy="564" r="2" opacity="0.3"/><circle cx="468" cy="564" r="2" opacity="0.3"/><circle cx="804" cy="564" r="2" opacity="0.3"/><circle cx="852" cy="564" r="2" opacity="0.3"/><circle cx="900" cy="564" r="2" opacity="0.3"/><circle cx="948" cy="564" r="2" opacity="0.3"/><circle cx="996" cy="564" r="2" opacity="0.3"/><circle cx="1044" cy="564" r="2" opacity="0.3"/><circle cx="1092" cy="564" r="2" opacity="0.3"/><circle cx="1140" cy="564" r="2" opacity="0.3"/><circle cx="1188" cy="564" r="2" opacity="0.3"/><circle cx="84" cy="612" r="2" opacity="0.3"/><circle cx="132" cy="612" r="2" opacity="0.3"/><circle cx="180" cy="612" r="2" opacity="0.3"/><circle cx="228" cy="612" r="2" opacity="0.3"/><circle cx="276" cy="612" r="2" opacity="0.3"/><circle cx="324" cy="612" r="2" opacity="0.3"/><circle cx="372" cy="612" r="2" opacity="0.3"/><circle cx="420" cy="612" r="2" opacity="0.3"/><circle cx="468" cy="612" r="2" opacity="0.3"/><circle cx="516" cy="612" r="2" opacity="0.3"/><circle cx="564" cy="612" r="2" opacity="0.3"/><circle cx="708" cy="612" r="2" opacity="0.3"/><circle cx="756" cy="612" r="2" opacity="0.3"/><circle cx="804" cy="612" r="2" opacity="0.3"/><circle cx="852" cy="612" r="2" opacity="0.3"/><circle cx="900" cy="612" r="2" opacity="0.3"/><circle cx="948" cy="612" r="2" opacity="0.3"/><circle cx="996" cy="612" r="2" opacity="0.3"/><circle cx="1044" cy="612" r="2" opacity="0.3"/><circle cx="1092" cy="612" r="2" opacity="0.3"/><circle cx="1140" cy="612" r="2" opacity="0.3"/><circle cx="1188" cy="612" r="2" opacity="0.3"/><circle cx="84" cy="660" r="2" opacity="0.3"/><circle cx="132" cy="660" r="2" opacity="0.3"/><circle cx="180" cy="660" r="2" opacity="0.3"/><circle cx="228" cy="660" r="2" opacity="0.3"/><circle cx="276" cy="660" r="2" opacity="0.3"/><circle cx="324" cy="660" r="2" opacity="0.3"/><circle cx="372" cy="660" r="2" opacity="0.3"/><circle cx="420" cy="660" r="2" opacity="0.3"/><circle cx="468" cy="660" r="2" opacity="0.3"/><circle cx="516" cy="660" r="2" opacity="0.3"/><circle cx="564" cy="660" r="2" opacity="0.3"/><circle cx="612" cy="660" r="2" opacity="0.3"/><circle cx="660" cy="660" r="2" opacity="0.3"/><circle cx="708" cy="660" r="2" opacity="0.3"/><circle cx="756" cy="660" r="2" opacity="0.3"/><circle cx="804" cy="660" r="2" opacity="0.3"/><circle cx="852" cy="660" r="2" opacity="0.3"/><circle cx="900" cy="660" r="2" opacity="0.3"/><circle cx="948" cy="660" r="2" opacity="0.3"/><circle cx="996" cy="660" r="2" opacity="0.3"/><circle cx="1044" cy="660" r="2" opacity="0.3"/><circle cx="1092" cy="660" r="2" opacity="0.3"/><circle cx="1140" cy="660" r="2" opacity="0.3"/><circle cx="1188" cy="660" r="2" opacity="0.3"/></g><g fill="none" stroke="#ffffff">
      <circle cx="640" cy="360" r="170" stroke-opacity="0.6" stroke-width="1.5"/>
      <circle cx="640" cy="360" r="204" stroke-opacity="0.14" stroke-width="1"/>
    </g>
    <line x1="505" y1="495" x2="775" y2="225" stroke="#ffffff" stroke-opacity="0.85" stroke-width="2"/>
    <circle cx="640" cy="360" r="7" fill="#ffffff"/><g><circle cx="268" cy="172" r="5" fill="none" stroke="#ffffff" stroke-opacity="0.5"/>
         <line x1="257" y1="183" x2="279" y2="161" stroke="#ffffff" stroke-opacity="0.5"/></g><g><circle cx="1010" cy="560" r="5" fill="none" stroke="#ffffff" stroke-opacity="0.5"/>
         <line x1="999" y1="571" x2="1021" y2="549" stroke="#ffffff" stroke-opacity="0.5"/></g><g><circle cx="980" cy="148" r="5" fill="none" stroke="#ffffff" stroke-opacity="0.5"/>
         <line x1="969" y1="159" x2="991" y2="137" stroke="#ffffff" stroke-opacity="0.5"/></g><g fill='#ffffff'><circle cx="705.0" cy="532.4" r="1.59" opacity="0.13"/><circle cx="571.6" cy="589.6" r="1.03" opacity="0.45"/><circle cx="1011.3" cy="693.2" r="1.12" opacity="0.56"/><circle cx="290.4" cy="590.0" r="1.97" opacity="0.47"/><circle cx="729.5" cy="91.4" r="0.73" opacity="0.27"/><circle cx="1072.8" cy="166.2" r="1.77" opacity="0.43"/><circle cx="711.9" cy="447.5" r="1.93" opacity="0.49"/><circle cx="539.5" cy="491.4" r="2.00" opacity="0.50"/><circle cx="457.1" cy="646.1" r="1.96" opacity="0.42"/><circle cx="731.2" cy="93.3" r="1.25" opacity="0.25"/><circle cx="663.0" cy="604.6" r="0.85" opacity="0.62"/><circle cx="1136.5" cy="656.1" r="1.57" opacity="0.61"/><circle cx="495.2" cy="204.6" r="0.74" opacity="0.33"/><circle cx="91.4" cy="457.3" r="1.40" opacity="0.27"/><circle cx="540.2" cy="566.8" r="1.79" opacity="0.60"/><circle cx="960.1" cy="559.5" r="1.93" opacity="0.67"/><circle cx="75.4" cy="403.9" r="1.77" opacity="0.66"/><circle cx="1125.1" cy="56.8" r="0.68" opacity="0.13"/><circle cx="1011.9" cy="606.8" r="1.71" opacity="0.53"/><circle cx="464.2" cy="689.8" r="1.93" opacity="0.66"/><circle cx="270.3" cy="343.4" r="0.70" opacity="0.41"/><circle cx="603.1" cy="605.7" r="1.21" opacity="0.40"/><circle cx="1110.4" cy="11.6" r="1.26" opacity="0.39"/><circle cx="60.0" cy="425.7" r="1.83" opacity="0.64"/><circle cx="1220.5" cy="185.7" r="1.00" opacity="0.59"/><circle cx="1071.7" cy="151.0" r="2.13" opacity="0.49"/><circle cx="800.1" cy="599.1" r="0.70" opacity="0.22"/><circle cx="772.2" cy="16.4" r="0.90" opacity="0.64"/><circle cx="1280.0" cy="107.1" r="0.83" opacity="0.31"/><circle cx="1043.4" cy="258.6" r="0.82" opacity="0.37"/><circle cx="943.5" cy="628.7" r="1.19" opacity="0.65"/><circle cx="403.1" cy="493.7" r="1.61" opacity="0.33"/><circle cx="564.5" cy="280.2" r="1.01" opacity="0.24"/><circle cx="1222.5" cy="513.6" r="0.99" opacity="0.15"/></g><rect width="1280" height="720" fill="url(#edge)"/><g stroke="#ffffff" stroke-opacity="0.28" stroke-width="2" fill="none">
    <path d="M 50 28 H 28 V 50"/>
    <path d="M 1230 28 H 1252 V 50"/>
    <path d="M 28 670 V 692 H 50"/>
    <path d="M 1252 670 V 692 H 1230"/>
  </g></svg>